# xmcd CD database file
#
# Track frame offsets:
#	150
#	21090
#	42147
#	57775
#
# Disc length: 1047 seconds
#
# Revision: 0
# Processed by: cddbd v1.5.1PL2 Copyright (c) Steve Scherf et al.
# Submitted via: CDex 1.51
#
DISCID=27041504
DTITLE=SweetS - on the way〜約束の場所へ〜
DYEAR=2005
DGENRE=JPop
TTITLE0=on the way〜約束の場所へ〜
TTITLE1=Waiting for U(Live Version)
TTITLE2=暑中お見舞い申し上げます(Live Version)
TTITLE3=on the way〜約束の場所へ〜(Instrumental)
EXTD=YEAR: 2005
EXTT0=
EXTT1=
EXTT2=
EXTT3=
PLAYORDER=
